<svg id="_009-trust" data-name="009-trust" xmlns="http://www.w3.org/2000/svg" width="22.765" height="24.155" viewBox="0 0 22.765 24.155">
  <g id="Group_112" data-name="Group 112" transform="translate(0 0)">
    <path id="Path_189" data-name="Path 189" d="M161.144,23.2l2.294.841a1.9,1.9,0,0,0,1.307,0l2.294-.841a12.864,12.864,0,0,0,8.184-9.55.829.829,0,0,0-1.626-.325,11.273,11.273,0,0,1-7.129,8.319l-2.294.841a.241.241,0,0,1-.165,0l-2.294-.841a11.245,11.245,0,0,1-7.347-10.52v-7.2a.411.411,0,0,1,.332-.4l9.444-1.839,9.343,1.838a.411.411,0,0,1,.331.4V9.951a.829.829,0,1,0,1.658,0V3.913a2.072,2.072,0,0,0-1.669-2.029L164.3.016a.83.83,0,0,0-.318,0l-9.6,1.87a2.072,2.072,0,0,0-1.673,2.03V11.12A12.908,12.908,0,0,0,161.144,23.2Z" transform="translate(-152.709 0)"/>
    <path id="Path_190" data-name="Path 190" d="M190.984,30.584a.828.828,0,0,0-.318,0L183.379,32a.829.829,0,0,0-.67.814V38.31a9.581,9.581,0,0,0,6.26,8.964l1.521.558a.83.83,0,0,0,.571,0l1.521-.558a9.581,9.581,0,0,0,6.26-8.964v-5.5a.829.829,0,0,0-.669-.813Zm6.2,7.726a7.917,7.917,0,0,1-5.173,7.407l-1.236.453-1.236-.453a7.917,7.917,0,0,1-5.173-7.407V33.5l6.457-1.257,6.361,1.251Z" transform="translate(-179.393 -27.19)"/>
    <path id="Path_191" data-name="Path 191" d="M225.2,80.445a.829.829,0,0,0-1.136,1.208l1.338,1.258a.829.829,0,0,0,.568.225l.053,0a.829.829,0,0,0,.587-.3l4.334-5.266a.829.829,0,0,0-1.28-1.054L225.9,81.1Z" transform="translate(-215.949 -67.788)"/>
  </g>
</svg>
