<svg id="_048-success" data-name="048-success" xmlns="http://www.w3.org/2000/svg" width="38.133" height="22.429" viewBox="0 0 38.133 22.429">
  <g id="Group_116" data-name="Group 116" transform="translate(0 0)">
    <path id="Path_205" data-name="Path 205" d="M174.391,14.435l-1.033,6.025a1.682,1.682,0,0,0,2.441,1.773l5.411-2.845,5.411,2.845a1.682,1.682,0,0,0,2.44-1.773l-1.033-6.025,4.378-4.267a1.682,1.682,0,0,0-.932-2.869l-1.378-.2a.9.9,0,0,0-.259,1.784l1.136.165-4.248,4.141a1.681,1.681,0,0,0-.484,1.489l1,5.847-5.251-2.761a1.681,1.681,0,0,0-1.566,0l-5.251,2.761,1-5.847a1.681,1.681,0,0,0-.484-1.489l-4.248-4.141,5.871-.853a1.682,1.682,0,0,0,1.267-.92l2.626-5.32,2.626,5.32a1.682,1.682,0,0,0,1.266.92l.919.134a.9.9,0,0,0,.259-1.784l-.856-.124L182.717.938a1.682,1.682,0,0,0-3.017,0L176.995,6.42l-6.05.879a1.682,1.682,0,0,0-.932,2.869Z" transform="translate(-162.142 0)"/>
    <path id="Path_206" data-name="Path 206" d="M252.49,75.986a.9.9,0,0,0,.9-.9v-5a.9.9,0,0,0-.9-.9h-1.068a.9.9,0,1,0,0,1.8h.166v4.094A.9.9,0,0,0,252.49,75.986Z" transform="translate(-233.423 -60.873)"/>
    <path id="Path_207" data-name="Path 207" d="M389.161,32.1a.9.9,0,0,0,.637-.264l1.5-1.5a.9.9,0,1,0-1.275-1.275l-1.5,1.5a.9.9,0,0,0,.637,1.539Z" transform="translate(-354.609 -25.343)"/>
    <path id="Path_208" data-name="Path 208" d="M390.02,147a.9.9,0,1,0,1.275-1.275l-1.5-1.5a.9.9,0,1,0-1.275,1.275Z" transform="translate(-354.61 -126.668)"/>
    <path id="Path_209" data-name="Path 209" d="M388.259,93.512a.9.9,0,0,0,.9.9h2.681a.9.9,0,1,0,0-1.8H389.16A.9.9,0,0,0,388.259,93.512Z" transform="translate(-354.609 -81.482)"/>
    <path id="Path_210" data-name="Path 210" d="M119.863,31.839a.9.9,0,0,0,1.275-1.275l-1.5-1.5a.9.9,0,0,0-1.275,1.275Z" transform="translate(-116.919 -25.343)"/>
    <path id="Path_211" data-name="Path 211" d="M119.863,144.232l-1.5,1.5A.9.9,0,0,0,119.642,147l1.5-1.5a.9.9,0,0,0-1.275-1.275Z" transform="translate(-116.919 -126.667)"/>
    <path id="Path_212" data-name="Path 212" d="M109.147,94.414h2.681a.9.9,0,1,0,0-1.8h-2.681a.9.9,0,1,0,0,1.8Z" transform="translate(-108.246 -81.482)"/>
  </g>
</svg>
