<svg xmlns="http://www.w3.org/2000/svg" width="18.439" height="23.289" viewBox="0 0 18.439 23.289">
  <path id="fi-rr-diploma" d="M10.764,11.645a.97.97,0,1,1,0,1.941H7.852a.97.97,0,1,1,0-1.941Zm5.823-2.911a.97.97,0,0,0-.97-.97H7.852a.97.97,0,1,0,0,1.941h7.764A.97.97,0,0,0,16.586,8.734ZM7.852,5.823h7.764a.97.97,0,0,0,0-1.941H7.852a.97.97,0,1,0,0,1.941ZM19.5,18.869v3.72a.7.7,0,0,1-1.195.495l-.746-.745-.746.745a.7.7,0,0,1-1.195-.495v-3.72a3.869,3.869,0,0,1,1.941-7.224,3.823,3.823,0,0,1,.97.138V4.852a2.911,2.911,0,0,0-2.911-2.911H7.852A2.911,2.911,0,0,0,4.941,4.852V16.5a2.911,2.911,0,0,0,2.911,2.911H12.7a.97.97,0,1,1,0,1.941H7.852A4.858,4.858,0,0,1,3,16.5V4.852A4.858,4.858,0,0,1,7.852,0h7.764a4.858,4.858,0,0,1,4.852,4.852v8.134a3.833,3.833,0,0,1-.97,5.883Zm0-3.342a1.941,1.941,0,1,0-1.941,1.941A1.941,1.941,0,0,0,19.5,15.527Z" transform="translate(-3)"/>
</svg>
