<svg id="fi-rr-shopping-cart-check" xmlns="http://www.w3.org/2000/svg" width="23.534" height="24.006" viewBox="0 0 23.534 24.006">
  <ellipse id="Ellipse_2" data-name="Ellipse 2" cx="2.167" cy="1.733" rx="2.167" ry="1.733" transform="translate(4.451 20.54)"/>
  <circle id="Ellipse_3" data-name="Ellipse 3" cx="1.733" cy="1.733" r="1.733" transform="translate(14.851 20.54)"/>
  <path id="Path_213" data-name="Path 213" d="M23.5,1.331a.981.981,0,0,0-1.388,0L17.051,6.4,15.529,4.81a.982.982,0,1,0-1.415,1.36L15.7,7.818a1.837,1.837,0,0,0,1.32.589h.032a1.838,1.838,0,0,0,1.31-.543L23.5,2.718a.981.981,0,0,0,0-1.388Z" transform="translate(-0.256 -0.019)"/>
  <path id="Path_214" data-name="Path 214" d="M21.494,8.849a.981.981,0,0,0-1.14.792l-.126.7a2.944,2.944,0,0,1-2.9,2.422H5.318L4.4,4.907h6.4a.981.981,0,1,0,0-1.963H4.163L4.122,2.6A2.944,2.944,0,0,0,1.2,0H.981a.981.981,0,1,0,0,1.963H1.2a.981.981,0,0,1,.975.867L3.524,14.313A4.907,4.907,0,0,0,8.4,18.648h10.25a.981.981,0,0,0,0-1.963H8.4a2.945,2.945,0,0,1-2.777-1.963H17.33a4.907,4.907,0,0,0,4.83-4.037l.126-.7A.981.981,0,0,0,21.494,8.849Z"/>
</svg>
