<svg id="fi-rr-user" xmlns="http://www.w3.org/2000/svg" width="20.743" height="27.658" viewBox="0 0 20.743 27.658">
  <path id="Path_220" data-name="Path 220" d="M12.914,13.829A6.914,6.914,0,1,0,6,6.914a6.914,6.914,0,0,0,6.914,6.914Zm0-11.524A4.61,4.61,0,1,1,8.3,6.914a4.61,4.61,0,0,1,4.61-4.61Z" transform="translate(-2.543)"/>
  <path id="Path_221" data-name="Path 221" d="M13.372,14A10.383,10.383,0,0,0,3,24.372a1.152,1.152,0,1,0,2.3,0,8.067,8.067,0,0,1,16.134,0,1.152,1.152,0,0,0,2.3,0A10.383,10.383,0,0,0,13.372,14Z" transform="translate(-3 2.134)"/>
</svg>
