<svg id="fi-rr-stats" xmlns="http://www.w3.org/2000/svg" width="23.048" height="23.048" viewBox="0 0 23.048 23.048">
  <path id="Path_215" data-name="Path 215" d="M22.088,21.128H2.881a.96.96,0,0,1-.96-.96V.96A.96.96,0,0,0,0,.96V20.167a2.881,2.881,0,0,0,2.881,2.881H22.088a.96.96,0,1,0,0-1.921Z" transform="translate(0 0)"/>
  <path id="Path_216" data-name="Path 216" d="M14.96,19.643a.96.96,0,0,0,.96-.96V11.96a.96.96,0,1,0-1.921,0v6.722A.96.96,0,0,0,14.96,19.643Z" transform="translate(-0.555 -0.436)"/>
  <path id="Path_217" data-name="Path 217" d="M6.96,19.643a.96.96,0,0,0,.96-.96V11.96A.96.96,0,0,0,6,11.96v6.722A.96.96,0,0,0,6.96,19.643Z" transform="translate(-0.238 -0.436)"/>
  <path id="Path_218" data-name="Path 218" d="M18.96,19.445a.96.96,0,0,0,.96-.96V6.96A.96.96,0,0,0,18,6.96V18.484A.96.96,0,0,0,18.96,19.445Z" transform="translate(-0.714 -0.238)"/>
  <path id="Path_219" data-name="Path 219" d="M10.96,19.445a.96.96,0,0,0,.96-.96V6.96A.96.96,0,0,0,10,6.96V18.484A.96.96,0,0,0,10.96,19.445Z" transform="translate(-0.397 -0.238)"/>
</svg>
