<svg xmlns="http://www.w3.org/2000/svg" width="22.465" height="22.452" viewBox="0 0 22.465 22.452">
  <path id="fi-rr-home" d="M21.642,8.49l-7.1-7.1a4.688,4.688,0,0,0-6.62,0l-7.1,7.1A2.788,2.788,0,0,0,0,10.476v9.189a2.808,2.808,0,0,0,2.808,2.808H19.657a2.808,2.808,0,0,0,2.808-2.808V10.476A2.788,2.788,0,0,0,21.642,8.49ZM14.041,20.6H8.424V16.919a2.808,2.808,0,0,1,5.616,0Zm6.552-.936a.936.936,0,0,1-.936.936H15.913V16.919a4.68,4.68,0,0,0-9.36,0V20.6H2.808a.936.936,0,0,1-.936-.936V10.476a.944.944,0,0,1,.274-.662l7.1-7.1a2.816,2.816,0,0,1,3.973,0l7.1,7.1a.944.944,0,0,1,.274.659Z" transform="translate(0 -0.021)" fill="#fc5a34"/>
</svg>
