<?xml version="1.0" encoding="utf-8"?>
<!-- Generator: Adobe Illustrator 23.1.0, SVG Export Plug-In . SVG Version: 6.00 Build 0)  -->
<svg version="1.1" id="Outline" xmlns="http://www.w3.org/2000/svg" xmlns:xlink="http://www.w3.org/1999/xlink" x="0px" y="0px"
	 viewBox="0 0 24 24" style="enable-background:new 0 0 24 24;" xml:space="preserve">
<style type="text/css">
	.st0{fill:#FFFFFF;}
</style>
<title>26 image landscape</title>
<path class="st0" d="M19,0H5C2.2,0,0,2.2,0,5v14c0,2.8,2.2,5,5,5h14c2.8,0,5-2.2,5-5V5C24,2.2,21.8,0,19,0z M5,2h14c1.7,0,3,1.3,3,3
	v14c0,0.4-0.1,0.9-0.3,1.3l-9.2-9.2c-2-2-5.1-2-7.1,0c0,0,0,0,0,0L2,14.6V5C2,3.3,3.3,2,5,2z M5,22c-1.7,0-3-1.3-3-3v-1.6l4.9-4.9
	c1.2-1.2,3.1-1.2,4.2,0c0,0,0,0,0,0l9.2,9.2C19.9,21.9,19.4,22,19,22H5z"/>
<path class="st0" d="M16,10.5c1.9,0,3.5-1.6,3.5-3.5S17.9,3.5,16,3.5S12.5,5.1,12.5,7S14.1,10.5,16,10.5z M16,5.5
	c0.8,0,1.5,0.7,1.5,1.5S16.8,8.5,16,8.5c-0.8,0-1.5-0.7-1.5-1.5S15.2,5.5,16,5.5z"/>
</svg>
