<?xml version="1.0" encoding="utf-8"?>
<!-- Generator: Adobe Illustrator 23.1.0, SVG Export Plug-In . SVG Version: 6.00 Build 0)  -->
<svg version="1.1" id="Outline" xmlns="http://www.w3.org/2000/svg" xmlns:xlink="http://www.w3.org/1999/xlink" x="0px" y="0px"
	 viewBox="0 0 24 24" style="enable-background:new 0 0 24 24;" xml:space="preserve">
<style type="text/css">
	.st0{fill:#FFFFFF;}
</style>
<title>33 portrait mode</title>
<path class="st0" d="M23,16c-0.6,0-1,0.4-1,1v2c0,1.7-1.3,3-3,3h-2c-0.6,0-1,0.4-1,1s0.4,1,1,1h2c2.8,0,5-2.2,5-5v-2
	C24,16.4,23.6,16,23,16z"/>
<path class="st0" d="M1,8c0.6,0,1-0.4,1-1V5c0-1.7,1.3-3,3-3h2c0.6,0,1-0.4,1-1S7.6,0,7,0H5C2.2,0,0,2.2,0,5v2C0,7.6,0.4,8,1,8z"/>
<path class="st0" d="M7,22H5c-1.7,0-3-1.3-3-3v-2c0-0.6-0.4-1-1-1s-1,0.4-1,1v2c0,2.8,2.2,5,5,5h2c0.6,0,1-0.4,1-1S7.6,22,7,22z"/>
<path class="st0" d="M19,0h-2c-0.6,0-1,0.4-1,1s0.4,1,1,1h2c1.7,0,3,1.3,3,3v2c0,0.6,0.4,1,1,1s1-0.4,1-1V5C24,2.2,21.8,0,19,0z"/>
<path class="st0" d="M12,11c2.2,0,4-1.8,4-4s-1.8-4-4-4S8,4.8,8,7S9.8,11,12,11z M12,5c1.1,0,2,0.9,2,2s-0.9,2-2,2s-2-0.9-2-2
	S10.9,5,12,5z"/>
<path class="st0" d="M18,20c0.6,0,1-0.4,1-1c0-3.3-2.7-6-6-6h-2c-3.3,0-6,2.7-6,6c0,0.6,0.4,1,1,1s1-0.4,1-1c0-2.2,1.8-4,4-4h2
	c2.2,0,4,1.8,4,4C17,19.6,17.4,20,18,20z"/>
</svg>
