<svg xmlns="http://www.w3.org/2000/svg" width="184" height="50.382" viewBox="0 0 184 50.382">
  <g id="Logo" transform="translate(-77.255 -81.643)">
    <path id="Path_18" data-name="Path 18" d="M104.348,122.249a10.316,10.316,0,0,0,5.794-10.935l-.336.3a27.591,27.591,0,0,1-14.076,7.8,27.673,27.673,0,0,0-18.352,13.422l-.124.22c4.074,4.776,16.485,5.277,29.727.836,11.813-3.963,20.727-10.666,22.775-16.515h0a4.647,4.647,0,0,0-.147-4.894c-1.306-1.764-3.922-2.129-6.326-1.054h0a36.057,36.057,0,0,1-8.562,6.677,37.239,37.239,0,0,1-10.376,4.451Z" transform="translate(0 -4.924)" fill="#692112"/>
    <path id="Path_19" data-name="Path 19" d="M129.943,95.606c0,5.093-3.036,6.413-6.781,6.413s-6.781-1.32-6.781-6.413,6.781-12.031,6.781-12.031S129.943,90.512,129.943,95.606Z" transform="translate(-7.07 0)" fill="#f36816"/>
    <g id="Group_73" data-name="Group 73" transform="translate(141.629 121.473)">
      <g id="Group_72" data-name="Group 72">
        <path id="Path_28" data-name="Path 28" d="M163.977,130.407l-1.2,6.8h-.894l.894-5.074-3.155,5.074h-.629l-1.376-5.053-.895,5.053h-.9l1.21-6.8H158l1.524,5.623,3.5-5.623Z" transform="translate(-155.827 -129.935)" fill="#f36816"/>
        <path id="Path_29" data-name="Path 29" d="M167.509,133.339a3.177,3.177,0,0,1,1.091-.968,2.868,2.868,0,0,1,1.372-.344,2.084,2.084,0,0,1,1.17.3,1.6,1.6,0,0,1,.639.767l.177-.984h.9l-.954,5.389H171l.187-1a2.793,2.793,0,0,1-.934.782,2.671,2.671,0,0,1-1.278.31,2.231,2.231,0,0,1-1.111-.27,1.86,1.86,0,0,1-.746-.773,2.432,2.432,0,0,1-.266-1.16,3.08,3.08,0,0,1,.06-.6A3.5,3.5,0,0,1,167.509,133.339Zm4.017,1.018a1.515,1.515,0,0,0-.428-1.136,1.488,1.488,0,0,0-1.086-.419,2.073,2.073,0,0,0-.959.236,2.222,2.222,0,0,0-.782.688,2.554,2.554,0,0,0-.432,1.063,2.35,2.35,0,0,0-.04.452,1.539,1.539,0,0,0,.423,1.145,1.472,1.472,0,0,0,1.082.419,2.035,2.035,0,0,0,.959-.242,2.253,2.253,0,0,0,.786-.7,2.56,2.56,0,0,0,.438-1.066A2.369,2.369,0,0,0,171.526,134.357Z" transform="translate(-157.82 -130.228)" fill="#f36816"/>
        <path id="Path_30" data-name="Path 30" d="M177.634,134.412l2.065,2.695h-1.219l-1.691-2.369-.423,2.369h-.895l1.288-7.275h.895L176.9,134.1l2.5-2.38h1.239Z" transform="translate(-159.377 -129.831)" fill="#f36816"/>
        <path id="Path_31" data-name="Path 31" d="M186.737,132.287a1.812,1.812,0,0,1,.758.728,2.15,2.15,0,0,1,.26,1.067,3.1,3.1,0,0,1-.048.5,3.447,3.447,0,0,1-.129.532h-4.306c-.013.131-.02.226-.02.284a1.368,1.368,0,0,0,.408,1.057,1.5,1.5,0,0,0,1.067.379,1.886,1.886,0,0,0,1.018-.27,1.769,1.769,0,0,0,.664-.723h.963a3,3,0,0,1-2.782,1.751,2.258,2.258,0,0,1-1.626-.586,2.1,2.1,0,0,1-.614-1.6,3.327,3.327,0,0,1,.059-.61,3.5,3.5,0,0,1,.6-1.465,3.085,3.085,0,0,1,1.117-.968,3.118,3.118,0,0,1,1.439-.339A2.494,2.494,0,0,1,186.737,132.287Zm.093,1.814a1.215,1.215,0,0,0-.4-.973,1.524,1.524,0,0,0-1.037-.344,1.949,1.949,0,0,0-1.249.447,2.213,2.213,0,0,0-.757,1.234H186.8A2.472,2.472,0,0,0,186.83,134.1Z" transform="translate(-160.619 -130.228)" fill="#f36816"/>
        <path id="Path_32" data-name="Path 32" d="M195.9,135.749a1.322,1.322,0,0,0-.029.255.405.405,0,0,0,.152.355.878.878,0,0,0,.5.108h.659l-.138.757h-.806a1.559,1.559,0,0,1-.959-.246.955.955,0,0,1-.319-.807,2.251,2.251,0,0,1,.039-.422l.56-3.176h-.688l.128-.738h.7l.236-1.357h.905l-.237,1.357h1.4l-.129.738h-1.406Z" transform="translate(-162.881 -129.948)" fill="#f36816"/>
        <path id="Path_33" data-name="Path 33" d="M204.38,132.067a1.66,1.66,0,0,1,.492,1.293,3.033,3.033,0,0,1-.049.571l-.56,3.176h-.885l.541-3.048a2.379,2.379,0,0,0,.039-.433,1.207,1.207,0,0,0-.329-.914,1.277,1.277,0,0,0-.919-.315,1.743,1.743,0,0,0-1.2.443,2.155,2.155,0,0,0-.644,1.288v-.02l-.531,3h-.9l1.289-7.275h.894l-.471,2.664a2.268,2.268,0,0,1,.85-.645,2.643,2.643,0,0,1,1.086-.231A1.857,1.857,0,0,1,204.38,132.067Z" transform="translate(-163.707 -129.831)" fill="#f36816"/>
        <path id="Path_34" data-name="Path 34" d="M212.2,132.287a1.812,1.812,0,0,1,.758.728,2.149,2.149,0,0,1,.26,1.067,3.11,3.11,0,0,1-.049.5,3.445,3.445,0,0,1-.128.532h-4.306c-.013.131-.02.226-.02.284a1.368,1.368,0,0,0,.408,1.057,1.5,1.5,0,0,0,1.067.379,1.888,1.888,0,0,0,1.018-.27,1.762,1.762,0,0,0,.664-.723h.964a3,3,0,0,1-2.782,1.751,2.259,2.259,0,0,1-1.627-.586,2.1,2.1,0,0,1-.614-1.6,3.333,3.333,0,0,1,.06-.61,3.5,3.5,0,0,1,.6-1.465,3.088,3.088,0,0,1,2.556-1.308A2.5,2.5,0,0,1,212.2,132.287Zm.093,1.814a1.215,1.215,0,0,0-.4-.973,1.526,1.526,0,0,0-1.037-.344,1.949,1.949,0,0,0-1.249.447,2.213,2.213,0,0,0-.757,1.234h3.412A2.472,2.472,0,0,0,212.294,134.1Z" transform="translate(-165.22 -130.228)" fill="#f36816"/>
        <path id="Path_35" data-name="Path 35" d="M228.131,132.134l-2.635,5.389h-.924l-.531-4.287-2.065,4.287h-.924l-.737-5.389h.914l.442,4.523,2.124-4.523h.924l.511,4.494,2.015-4.494Z" transform="translate(-167.48 -130.247)" fill="#f36816"/>
        <path id="Path_36" data-name="Path 36" d="M231.565,137.311a1.988,1.988,0,0,1-.8-.787,2.357,2.357,0,0,1-.285-1.174,3.4,3.4,0,0,1,.423-1.676,3.174,3.174,0,0,1,2.822-1.647,2.513,2.513,0,0,1,1.2.28,1.992,1.992,0,0,1,.816.787,2.34,2.34,0,0,1,.291,1.185,3.3,3.3,0,0,1-.433,1.671,3.223,3.223,0,0,1-2.841,1.643A2.454,2.454,0,0,1,231.565,137.311Zm2.453-.826a2.4,2.4,0,0,0,.8-.924,2.687,2.687,0,0,0,.291-1.233,1.481,1.481,0,0,0-.433-1.146,1.539,1.539,0,0,0-1.081-.4,1.946,1.946,0,0,0-1.14.349,2.323,2.323,0,0,0-.777.928,2.893,2.893,0,0,0-.275,1.249,1.491,1.491,0,0,0,.413,1.126,1.453,1.453,0,0,0,1.052.4A1.99,1.99,0,0,0,234.018,136.485Z" transform="translate(-169.316 -130.228)" fill="#f36816"/>
        <path id="Path_37" data-name="Path 37" d="M241.137,132.31a2.134,2.134,0,0,1,1.122-.3l-.168.924h-.236a1.812,1.812,0,0,0-1.165.374,2,2,0,0,0-.623,1.258l-.521,2.931h-.9l.954-5.389h.9l-.178,1.022A2.42,2.42,0,0,1,241.137,132.31Z" transform="translate(-170.793 -130.225)" fill="#f36816"/>
        <path id="Path_38" data-name="Path 38" d="M245.909,129.831l-1.287,7.275h-.9l1.289-7.275Z" transform="translate(-171.71 -129.831)" fill="#f36816"/>
        <path id="Path_39" data-name="Path 39" d="M248.029,132.942a3.156,3.156,0,0,1,1.1-.968,2.893,2.893,0,0,1,1.376-.344,2.157,2.157,0,0,1,1.112.289,1.65,1.65,0,0,1,.7.762l.5-2.85h.9l-1.288,7.275h-.905l.188-1.013a2.64,2.64,0,0,1-.924.792,2.674,2.674,0,0,1-1.279.31,2.23,2.23,0,0,1-1.11-.27,1.893,1.893,0,0,1-.752-.773,2.4,2.4,0,0,1-.27-1.16,3.078,3.078,0,0,1,.059-.6A3.49,3.49,0,0,1,248.029,132.942Zm4.016,1.018a1.518,1.518,0,0,0-.428-1.136,1.488,1.488,0,0,0-1.087-.419,2.07,2.07,0,0,0-.958.236,2.217,2.217,0,0,0-.782.688,2.575,2.575,0,0,0-.432,1.063,2.419,2.419,0,0,0-.04.452,1.536,1.536,0,0,0,.424,1.145,1.471,1.471,0,0,0,1.081.419,2.032,2.032,0,0,0,.959-.242,2.263,2.263,0,0,0,.787-.7A2.559,2.559,0,0,0,252,134.4,2.369,2.369,0,0,0,252.045,133.96Z" transform="translate(-172.37 -129.831)" fill="#f36816"/>
        <path id="Path_40" data-name="Path 40" d="M262.781,131.935a2.667,2.667,0,0,1,1.258-.3,2.006,2.006,0,0,1,2.133,2.153,3.5,3.5,0,0,1-.058.61,3.621,3.621,0,0,1-.6,1.454,3.206,3.206,0,0,1-1.091.993,2.785,2.785,0,0,1-1.362.355,2.116,2.116,0,0,1-1.17-.3,1.636,1.636,0,0,1-.659-.777l-.176.993h-.9l1.288-7.275h.895l-.511,2.89A2.782,2.782,0,0,1,262.781,131.935Zm2.458,2a1.428,1.428,0,0,0-1.513-1.534,2.046,2.046,0,0,0-.954.241,2.253,2.253,0,0,0-.791.7,2.532,2.532,0,0,0-.438,1.057,2.345,2.345,0,0,0-.039.451,1.517,1.517,0,0,0,.427,1.136,1.489,1.489,0,0,0,1.086.419,2.028,2.028,0,0,0,.959-.242,2.249,2.249,0,0,0,.786-.7,2.555,2.555,0,0,0,.438-1.076A2.369,2.369,0,0,0,265.239,133.94Z" transform="translate(-174.681 -129.831)" fill="#f36816"/>
        <path id="Path_41" data-name="Path 41" d="M273.364,132.287a1.812,1.812,0,0,1,.758.728,2.15,2.15,0,0,1,.26,1.067,3.1,3.1,0,0,1-.048.5,3.451,3.451,0,0,1-.129.532H269.9c-.013.131-.02.226-.02.284a1.368,1.368,0,0,0,.408,1.057,1.5,1.5,0,0,0,1.067.379,1.886,1.886,0,0,0,1.018-.27,1.769,1.769,0,0,0,.664-.723H274a3,3,0,0,1-2.782,1.751,2.26,2.26,0,0,1-1.627-.586,2.1,2.1,0,0,1-.615-1.6,3.332,3.332,0,0,1,.06-.61,3.5,3.5,0,0,1,.6-1.465,3.089,3.089,0,0,1,1.116-.968,3.121,3.121,0,0,1,1.44-.339A2.493,2.493,0,0,1,273.364,132.287Zm.093,1.814a1.215,1.215,0,0,0-.4-.973,1.524,1.524,0,0,0-1.037-.344,1.95,1.95,0,0,0-1.249.447,2.213,2.213,0,0,0-.757,1.234h3.412A2.476,2.476,0,0,0,273.457,134.1Z" transform="translate(-176.273 -130.228)" fill="#f36816"/>
        <path id="Path_42" data-name="Path 42" d="M278.346,135.749a1.389,1.389,0,0,0-.03.255.405.405,0,0,0,.152.355.879.879,0,0,0,.5.108h.66l-.138.757h-.807a1.559,1.559,0,0,1-.959-.246.958.958,0,0,1-.319-.807,2.186,2.186,0,0,1,.039-.422l.56-3.176h-.688l.129-.738h.7l.236-1.357h.905l-.236,1.357h1.4l-.129.738h-1.405Z" transform="translate(-177.78 -129.948)" fill="#f36816"/>
        <path id="Path_43" data-name="Path 43" d="M283.314,135.749a1.325,1.325,0,0,0-.029.255.405.405,0,0,0,.152.355.878.878,0,0,0,.5.108h.659l-.138.757h-.806a1.559,1.559,0,0,1-.959-.246.956.956,0,0,1-.32-.807,2.253,2.253,0,0,1,.039-.422l.56-3.176h-.688l.128-.738h.7l.236-1.357h.9l-.236,1.357h1.4l-.128.738h-1.406Z" transform="translate(-178.677 -129.948)" fill="#f36816"/>
        <path id="Path_44" data-name="Path 44" d="M291.339,132.287a1.807,1.807,0,0,1,.758.728,2.15,2.15,0,0,1,.261,1.067,3.113,3.113,0,0,1-.049.5,3.441,3.441,0,0,1-.128.532h-4.306c-.014.131-.02.226-.02.284a1.368,1.368,0,0,0,.408,1.057,1.5,1.5,0,0,0,1.066.379,1.889,1.889,0,0,0,1.018-.27,1.762,1.762,0,0,0,.664-.723h.963a3,3,0,0,1-2.783,1.751,2.258,2.258,0,0,1-1.626-.586,2.1,2.1,0,0,1-.615-1.6,3.327,3.327,0,0,1,.059-.61,3.505,3.505,0,0,1,.6-1.465,3.088,3.088,0,0,1,2.556-1.308A2.49,2.49,0,0,1,291.339,132.287Zm.094,1.814a1.213,1.213,0,0,0-.4-.973,1.523,1.523,0,0,0-1.036-.344,1.95,1.95,0,0,0-1.249.447,2.212,2.212,0,0,0-.756,1.234H291.4A2.472,2.472,0,0,0,291.433,134.1Z" transform="translate(-179.521 -130.228)" fill="#f36816"/>
        <path id="Path_45" data-name="Path 45" d="M297.381,132.31a2.129,2.129,0,0,1,1.121-.3l-.167.924H298.1a1.811,1.811,0,0,0-1.165.374,2,2,0,0,0-.624,1.258l-.521,2.931h-.9l.954-5.389h.9l-.178,1.022A2.415,2.415,0,0,1,297.381,132.31Z" transform="translate(-180.956 -130.225)" fill="#f36816"/>
      </g>
    </g>
    <text id="Be_A_Donor" data-name="Be A Donor" transform="translate(141.255 113.643)" fill="#260d0e" font-size="27" font-family="Oswald-SemiBold, Oswald" font-weight="600"><tspan x="0" y="0">Be A Donor</tspan></text>
  </g>
</svg>
