<?xml version="1.0" encoding="utf-8"?>
<!-- Generator: Adobe Illustrator 23.1.0, SVG Export Plug-In . SVG Version: 6.00 Build 0)  -->
<svg version="1.1" id="Layer_1" xmlns="http://www.w3.org/2000/svg" xmlns:xlink="http://www.w3.org/1999/xlink" x="0px" y="0px"
	 viewBox="0 0 184 50.4" style="enable-background:new 0 0 184 50.4;" xml:space="preserve">
<style type="text/css">
	.st0{fill:#FC5A34;}
	.st1{fill:#FFC960;}
	.st2{enable-background:new    ;}
</style>
<g id="Path_18">
	<path class="st0" d="M27.1,35.7c4.1-2,6.5-6.4,5.8-10.9L32.6,25c-3.8,3.9-8.7,6.7-14.1,7.8C10.7,34.5,4,39.4,0.1,46.3L0,46.5
		c4.1,4.8,16.5,5.3,29.7,0.8c11.8-4,20.7-10.7,22.8-16.5l0,0c0.9-1.5,0.8-3.4-0.1-4.9c-1.3-1.8-3.9-2.1-6.3-1.1l0,0
		c-2.5,2.6-5.4,4.9-8.6,6.7c-3.2,2-6.7,3.5-10.4,4.5L27.1,35.7z"/>
</g>
<g id="Path_19">
	<path class="st1" d="M45.6,14c0,5.1-3,6.4-6.8,6.4s-6.8-1.3-6.8-6.4s6.8-12,6.8-12S45.6,8.9,45.6,14z"/>
</g>
<g id="Group_73" transform="translate(141.629 121.473)">
	<g id="Group_72">
		<g id="Path_28">
			<path class="st1" d="M-69.1-81.2l-1.2,6.8h-0.9l0.9-5.1l-3.2,5.1h-0.6l-1.4-5.1l-0.9,5.1h-0.9l1.2-6.8h1l1.5,5.6l3.5-5.6H-69.1z"
				/>
		</g>
		<g id="Path_29">
			<path class="st1" d="M-67.6-78.5c0.3-0.4,0.7-0.7,1.1-1c0.4-0.2,0.9-0.3,1.4-0.3c0.4,0,0.8,0.1,1.2,0.3c0.3,0.2,0.5,0.4,0.6,0.8
				l0.2-1h0.9l-1,5.4h-0.9l0.2-1c-0.3,0.3-0.6,0.6-0.9,0.8c-0.4,0.2-0.8,0.3-1.3,0.3c-0.4,0-0.8-0.1-1.1-0.3
				c-0.3-0.2-0.6-0.4-0.7-0.8c-0.2-0.4-0.3-0.8-0.3-1.2c0-0.2,0-0.4,0.1-0.6C-68.1-77.6-67.9-78.1-67.6-78.5z M-63.5-77.5
				c0-0.4-0.1-0.8-0.4-1.1c-0.3-0.3-0.7-0.4-1.1-0.4c-0.3,0-0.7,0.1-1,0.2c-0.3,0.2-0.6,0.4-0.8,0.7c-0.2,0.3-0.4,0.7-0.4,1.1
				c0,0.1,0,0.3,0,0.5c0,0.4,0.1,0.8,0.4,1.1c0.3,0.3,0.7,0.4,1.1,0.4c0.3,0,0.7-0.1,1-0.2c0.3-0.2,0.6-0.4,0.8-0.7
				c0.2-0.3,0.4-0.7,0.4-1.1C-63.6-77.2-63.5-77.4-63.5-77.5L-63.5-77.5z"/>
		</g>
		<g id="Path_30">
			<path class="st1" d="M-59-77.1l2.1,2.7h-1.2l-1.7-2.4l-0.4,2.4h-0.9l1.3-7.3h0.9l-0.8,4.3l2.5-2.4h1.2L-59-77.1z"/>
		</g>
		<g id="Path_31">
			<path class="st1" d="M-51.1-79.6c0.3,0.2,0.6,0.4,0.8,0.7c0.2,0.3,0.3,0.7,0.3,1.1c0,0.2,0,0.3,0,0.5c0,0.2-0.1,0.4-0.1,0.5h-4.3
				c0,0.1,0,0.2,0,0.3c0,0.4,0.1,0.8,0.4,1.1c0.3,0.3,0.7,0.4,1.1,0.4c0.4,0,0.7-0.1,1-0.3c0.3-0.2,0.5-0.4,0.7-0.7h1
				c-0.5,1.1-1.6,1.8-2.8,1.8c-0.6,0-1.2-0.2-1.6-0.6c-0.4-0.4-0.6-1-0.6-1.6c0-0.2,0-0.4,0.1-0.6c0.1-0.5,0.3-1,0.6-1.5
				c0.3-0.4,0.7-0.7,1.1-1c0.4-0.2,0.9-0.3,1.4-0.3C-51.9-79.9-51.5-79.8-51.1-79.6z M-51-77.8c0-0.4-0.1-0.7-0.4-1
				c-0.3-0.2-0.7-0.4-1-0.3c-0.5,0-0.9,0.2-1.2,0.4c-0.4,0.3-0.7,0.7-0.8,1.2h3.4C-51.1-77.5-51-77.6-51-77.8L-51-77.8z"/>
		</g>
		<g id="Path_32">
			<path class="st1" d="M-44.2-75.8c0,0.1,0,0.2,0,0.3c0,0.1,0,0.3,0.2,0.4c0.2,0.1,0.3,0.1,0.5,0.1h0.7l-0.1,0.8h-0.8
				c-0.3,0-0.7-0.1-1-0.2c-0.2-0.2-0.3-0.5-0.3-0.8c0-0.1,0-0.3,0-0.4l0.6-3.2h-0.7l0.1-0.7h0.7l0.2-1.4h0.9l-0.2,1.4h1.4l-0.1,0.7
				h-1.4L-44.2-75.8z"/>
		</g>
		<g id="Path_33">
			<path class="st1" d="M-36.6-79.4c0.3,0.3,0.5,0.8,0.5,1.3c0,0.2,0,0.4,0,0.6l-0.6,3.2h-0.9l0.5-3c0-0.1,0-0.3,0-0.4
				c0-0.3-0.1-0.7-0.3-0.9c-0.3-0.2-0.6-0.3-0.9-0.3c-0.4,0-0.9,0.1-1.2,0.4c-0.4,0.3-0.6,0.8-0.6,1.3v0l-0.5,3h-0.9l1.3-7.3h0.9
				l-0.5,2.7c0.2-0.3,0.5-0.5,0.9-0.6c0.3-0.2,0.7-0.2,1.1-0.2C-37.4-79.9-36.9-79.7-36.6-79.4z"/>
		</g>
		<g id="Path_34">
			<path class="st1" d="M-30.3-79.6c0.3,0.2,0.6,0.4,0.8,0.7c0.2,0.3,0.3,0.7,0.3,1.1c0,0.2,0,0.3,0,0.5c0,0.2-0.1,0.4-0.1,0.5h-4.3
				c0,0.1,0,0.2,0,0.3c0,0.4,0.1,0.8,0.4,1.1c0.3,0.3,0.7,0.4,1.1,0.4c0.4,0,0.7-0.1,1-0.3c0.3-0.2,0.5-0.4,0.7-0.7h1
				c-0.5,1.1-1.6,1.8-2.8,1.8c-0.6,0-1.2-0.2-1.6-0.6c-0.4-0.4-0.6-1-0.6-1.6c0-0.2,0-0.4,0.1-0.6c0.1-0.5,0.3-1,0.6-1.5
				c0.6-0.8,1.5-1.3,2.6-1.3C-31-79.9-30.6-79.8-30.3-79.6z M-30.2-77.8c0-0.4-0.1-0.7-0.4-1c-0.3-0.2-0.7-0.4-1-0.3
				c-0.5,0-0.9,0.2-1.2,0.4c-0.4,0.3-0.7,0.7-0.8,1.2h3.4C-30.2-77.5-30.2-77.6-30.2-77.8L-30.2-77.8z"/>
		</g>
		<g id="Path_35">
			<path class="st1" d="M-16.6-79.8l-2.6,5.4h-0.9l-0.5-4.3l-2.1,4.3h-0.9l-0.7-5.4h0.9l0.4,4.5l2.1-4.5h0.9l0.5,4.5l2-4.5H-16.6z"
				/>
		</g>
		<g id="Path_36">
			<path class="st1" d="M-15-74.6c-0.3-0.2-0.6-0.5-0.8-0.8c-0.2-0.4-0.3-0.8-0.3-1.2c0-0.6,0.1-1.2,0.4-1.7c0.6-1,1.6-1.7,2.8-1.6
				c0.4,0,0.8,0.1,1.2,0.3c0.3,0.2,0.6,0.5,0.8,0.8c0.2,0.4,0.3,0.8,0.3,1.2c0,0.6-0.1,1.2-0.4,1.7c-0.6,1-1.7,1.7-2.8,1.6
				C-14.2-74.3-14.6-74.4-15-74.6z M-12.6-75.4c0.3-0.2,0.6-0.6,0.8-0.9c0.2-0.4,0.3-0.8,0.3-1.2c0-0.4-0.1-0.8-0.4-1.1
				c-0.3-0.3-0.7-0.4-1.1-0.4c-0.4,0-0.8,0.1-1.1,0.3c-0.3,0.2-0.6,0.6-0.8,0.9c-0.2,0.4-0.3,0.8-0.3,1.2c0,0.4,0.1,0.8,0.4,1.1
				c0.3,0.3,0.7,0.4,1.1,0.4C-13.3-75-12.9-75.2-12.6-75.4z"/>
		</g>
		<g id="Path_37">
			<path class="st1" d="M-6.9-79.6c0.3-0.2,0.7-0.3,1.1-0.3L-6-78.9h-0.2c-0.4,0-0.8,0.1-1.2,0.4c-0.4,0.3-0.6,0.8-0.6,1.3l-0.5,2.9
				h-0.9l1-5.4h0.9l-0.2,1C-7.5-79.1-7.2-79.4-6.9-79.6z"/>
		</g>
		<g id="Path_38">
			<path class="st1" d="M-3.1-81.6l-1.3,7.3h-0.9l1.3-7.3H-3.1z"/>
		</g>
		<g id="Path_39">
			<path class="st1" d="M-1.6-78.5c0.3-0.4,0.7-0.7,1.1-1c0.4-0.2,0.9-0.3,1.4-0.3c0.4,0,0.8,0.1,1.1,0.3c0.3,0.2,0.6,0.4,0.7,0.8
				l0.5-2.9h0.9l-1.3,7.3H1.9l0.2-1c-0.2,0.3-0.6,0.6-0.9,0.8c-0.4,0.2-0.8,0.3-1.3,0.3c-0.4,0-0.8-0.1-1.1-0.3
				C-1.5-74.7-1.8-75-2-75.3c-0.2-0.4-0.3-0.8-0.3-1.2c0-0.2,0-0.4,0.1-0.6C-2.1-77.6-1.9-78.1-1.6-78.5z M2.4-77.5
				c0-0.4-0.1-0.8-0.4-1.1c-0.3-0.3-0.7-0.4-1.1-0.4c-0.3,0-0.7,0.1-1,0.2c-0.3,0.2-0.6,0.4-0.8,0.7c-0.2,0.3-0.4,0.7-0.4,1.1
				c0,0.1,0,0.3,0,0.5c0,0.4,0.1,0.8,0.4,1.1c0.3,0.3,0.7,0.4,1.1,0.4c0.3,0,0.7-0.1,1-0.2c0.3-0.2,0.6-0.4,0.8-0.7
				c0.2-0.3,0.4-0.7,0.4-1.1C2.4-77.2,2.4-77.4,2.4-77.5L2.4-77.5z"/>
		</g>
		<g id="Path_40">
			<path class="st1" d="M10.8-79.5c0.4-0.2,0.8-0.3,1.3-0.3c1.1-0.1,2.1,0.8,2.1,1.9c0,0.1,0,0.2,0,0.3c0,0.2,0,0.4-0.1,0.6
				c-0.1,0.5-0.3,1-0.6,1.5c-0.3,0.4-0.7,0.8-1.1,1c-0.4,0.2-0.9,0.4-1.4,0.4c-0.4,0-0.8-0.1-1.2-0.3c-0.3-0.2-0.5-0.5-0.7-0.8
				l-0.2,1H8.2l1.3-7.3h0.9l-0.5,2.9C10.1-79.1,10.5-79.3,10.8-79.5z M13.3-77.5c0.1-0.8-0.5-1.5-1.3-1.5c-0.1,0-0.1,0-0.2,0
				c-0.3,0-0.7,0.1-1,0.2c-0.3,0.2-0.6,0.4-0.8,0.7c-0.2,0.3-0.4,0.7-0.4,1.1c0,0.1,0,0.3,0,0.5c0,0.4,0.1,0.8,0.4,1.1
				c0.3,0.3,0.7,0.4,1.1,0.4c0.3,0,0.7-0.1,1-0.2c0.3-0.2,0.6-0.4,0.8-0.7c0.2-0.3,0.4-0.7,0.4-1.1C13.3-77.2,13.3-77.4,13.3-77.5
				L13.3-77.5z"/>
		</g>
		<g id="Path_41">
			<path class="st1" d="M19.8-79.6c0.3,0.2,0.6,0.4,0.8,0.7c0.2,0.3,0.3,0.7,0.3,1.1c0,0.2,0,0.3,0,0.5c0,0.2-0.1,0.4-0.1,0.5h-4.3
				c0,0.1,0,0.2,0,0.3c0,0.4,0.1,0.8,0.4,1.1c0.3,0.3,0.7,0.4,1.1,0.4c0.4,0,0.7-0.1,1-0.3c0.3-0.2,0.5-0.4,0.7-0.7h1
				c-0.5,1.1-1.6,1.8-2.8,1.8c-0.6,0-1.2-0.2-1.6-0.6c-0.4-0.4-0.6-1-0.6-1.6c0-0.2,0-0.4,0.1-0.6c0.1-0.5,0.3-1,0.6-1.5
				c0.3-0.4,0.7-0.7,1.1-1c0.4-0.2,0.9-0.3,1.4-0.3C19.1-79.9,19.5-79.8,19.8-79.6z M19.9-77.8c0-0.4-0.1-0.7-0.4-1
				c-0.3-0.2-0.7-0.4-1-0.3c-0.5,0-0.9,0.2-1.2,0.4c-0.4,0.3-0.7,0.7-0.8,1.2h3.4C19.9-77.5,19.9-77.6,19.9-77.8L19.9-77.8z"/>
		</g>
		<g id="Path_42">
			<path class="st1" d="M23.3-75.8c0,0.1,0,0.2,0,0.3c0,0.1,0,0.3,0.2,0.4c0.2,0.1,0.3,0.1,0.5,0.1h0.7l-0.1,0.8h-0.8
				c-0.3,0-0.7-0.1-1-0.2c-0.2-0.2-0.3-0.5-0.3-0.8c0-0.1,0-0.3,0-0.4L23-79h-0.7l0.1-0.7h0.7l0.2-1.4h0.9L24-79.8h1.4L25.3-79h-1.4
				L23.3-75.8z"/>
		</g>
		<g id="Path_43">
			<path class="st1" d="M27.4-75.8c0,0.1,0,0.2,0,0.3c0,0.1,0,0.3,0.2,0.4c0.2,0.1,0.3,0.1,0.5,0.1h0.7l-0.1,0.8h-0.8
				c-0.3,0-0.7-0.1-1-0.2c-0.2-0.2-0.3-0.5-0.3-0.8c0-0.1,0-0.3,0-0.4L27-79h-0.7l0.1-0.7h0.7l0.2-1.4h0.9l-0.2,1.4h1.4L29.4-79
				h-1.4L27.4-75.8z"/>
		</g>
		<g id="Path_44">
			<path class="st1" d="M34.6-79.6c0.3,0.2,0.6,0.4,0.8,0.7c0.2,0.3,0.3,0.7,0.3,1.1c0,0.2,0,0.3,0,0.5c0,0.2-0.1,0.4-0.1,0.5h-4.3
				c0,0.1,0,0.2,0,0.3c0,0.4,0.1,0.8,0.4,1.1c0.3,0.3,0.7,0.4,1.1,0.4c0.4,0,0.7-0.1,1-0.3c0.3-0.2,0.5-0.4,0.7-0.7h1
				c-0.5,1.1-1.6,1.8-2.8,1.8c-0.6,0-1.2-0.2-1.6-0.6c-0.4-0.4-0.6-1-0.6-1.6c0-0.2,0-0.4,0.1-0.6c0.1-0.5,0.3-1,0.6-1.5
				c0.6-0.8,1.5-1.3,2.6-1.3C33.8-79.9,34.2-79.8,34.6-79.6z M34.7-77.8c0-0.4-0.1-0.7-0.4-1c-0.3-0.2-0.7-0.4-1-0.3
				c-0.5,0-0.9,0.2-1.2,0.4c-0.4,0.3-0.6,0.7-0.8,1.2h3.4C34.6-77.5,34.7-77.6,34.7-77.8L34.7-77.8z"/>
		</g>
		<g id="Path_45">
			<path class="st1" d="M39.2-79.6c0.3-0.2,0.7-0.3,1.1-0.3l-0.2,0.9h-0.2c-0.4,0-0.8,0.1-1.2,0.4c-0.4,0.3-0.6,0.8-0.6,1.3
				l-0.5,2.9h-0.9l1-5.4h0.9l-0.2,1C38.6-79.1,38.8-79.4,39.2-79.6z"/>
		</g>
	</g>
</g>
<g class="st2">
	<path class="st0" d="M65.6,32V10.1h5.5c1,0,1.8,0.1,2.6,0.2s1.5,0.5,2.1,0.9s1.1,1,1.4,1.7c0.3,0.7,0.5,1.7,0.5,2.8
		c0,0.9-0.1,1.6-0.4,2.3s-0.6,1.1-1.1,1.5s-1,0.6-1.7,0.7c0.8,0.1,1.6,0.4,2.1,0.9c0.6,0.5,1,1,1.3,1.8c0.3,0.7,0.4,1.6,0.4,2.7
		c0,1.1-0.1,2.1-0.4,2.9c-0.3,0.8-0.7,1.5-1.2,2c-0.5,0.5-1.2,0.9-2,1.2c-0.8,0.3-1.7,0.4-2.8,0.4H65.6z M70.1,19h1.1
		c0.8,0,1.4-0.1,1.8-0.3c0.4-0.2,0.7-0.6,0.8-1c0.2-0.5,0.2-1,0.2-1.7s-0.1-1.2-0.3-1.6c-0.2-0.4-0.6-0.7-1-0.9
		c-0.5-0.2-1-0.3-1.7-0.3h-0.8V19z M70.1,28.9h1.2c1.1,0,1.9-0.3,2.3-0.8s0.6-1.4,0.6-2.5c0-0.9-0.1-1.6-0.3-2.1
		c-0.2-0.5-0.5-0.9-1-1.1c-0.4-0.2-1-0.4-1.8-0.4h-1.2V28.9z"/>
	<path class="st0" d="M85.8,32.3c-1.2,0-2.1-0.2-2.9-0.6c-0.8-0.4-1.4-1-1.8-1.9c-0.4-0.8-0.6-1.8-0.6-3v-5.2c0-1.2,0.2-2.2,0.6-3
		s1-1.4,1.8-1.8c0.8-0.4,1.7-0.6,2.9-0.6c1.2,0,2.2,0.2,2.9,0.6c0.7,0.4,1.3,1.1,1.6,1.9s0.5,1.8,0.5,3v2.7h-6.3v3
		c0,0.5,0,0.8,0.1,1.1c0.1,0.3,0.2,0.5,0.4,0.6c0.2,0.1,0.4,0.2,0.7,0.2c0.3,0,0.5-0.1,0.7-0.2s0.3-0.3,0.4-0.6
		c0.1-0.3,0.1-0.6,0.1-1v-1.5h3.8v1.3c0,1.6-0.4,2.8-1.3,3.6C88.7,31.9,87.4,32.3,85.8,32.3z M84.6,22.5h2.5v-1.5
		c0-0.4,0-0.8-0.1-1.1s-0.2-0.5-0.4-0.6c-0.2-0.1-0.4-0.2-0.7-0.2c-0.3,0-0.5,0.1-0.7,0.2c-0.2,0.1-0.3,0.3-0.4,0.7
		c-0.1,0.3-0.1,0.8-0.1,1.3V22.5z"/>
	<path class="st0" d="M99.2,32l4.2-21.9h4.9l4.2,21.9h-4.1l-0.8-4.8h-3.5l-0.8,4.8H99.2z M104.7,24.5h2.6l-1.3-8.8L104.7,24.5z"/>
	<path class="st0" d="M121.4,32V10.1h5.3c1.9,0,3.3,0.2,4.3,0.7s1.8,1.2,2.2,2.2c0.4,1,0.6,2.3,0.6,3.9v8c0,1.6-0.2,3-0.6,4
		s-1.2,1.8-2.2,2.3c-1,0.5-2.4,0.7-4.3,0.7H121.4z M125.9,28.9h0.9c0.8,0,1.4-0.1,1.8-0.4s0.6-0.6,0.7-1.2c0.1-0.5,0.1-1.1,0.1-1.9
		v-9c0-0.8-0.1-1.4-0.2-1.8c-0.1-0.5-0.4-0.8-0.7-1s-0.9-0.3-1.7-0.3h-0.9V28.9z"/>
	<path class="st0" d="M141.6,32.3c-1.1,0-2.1-0.2-2.9-0.6c-0.8-0.4-1.4-1-1.8-1.8c-0.4-0.8-0.6-1.7-0.6-2.9v-5.6
		c0-1.2,0.2-2.1,0.6-2.9c0.4-0.8,1-1.4,1.8-1.8s1.7-0.6,2.9-0.6c1.1,0,2.1,0.2,2.9,0.6c0.8,0.4,1.4,1,1.8,1.8
		c0.4,0.8,0.6,1.7,0.6,2.9V27c0,1.2-0.2,2.1-0.6,2.9c-0.4,0.8-1,1.4-1.8,1.8C143.7,32.1,142.7,32.3,141.6,32.3z M141.6,29.5
		c0.3,0,0.6-0.1,0.8-0.3c0.2-0.2,0.3-0.4,0.4-0.8c0.1-0.3,0.1-0.7,0.1-1.1v-6.2c0-0.5,0-0.8-0.1-1.2c-0.1-0.3-0.2-0.6-0.4-0.8
		c-0.2-0.2-0.4-0.3-0.8-0.3c-0.3,0-0.6,0.1-0.8,0.3c-0.2,0.2-0.3,0.5-0.4,0.8c-0.1,0.3-0.1,0.7-0.1,1.2v6.2c0,0.4,0,0.8,0.1,1.1
		c0.1,0.3,0.2,0.6,0.4,0.8C141,29.4,141.3,29.5,141.6,29.5z"/>
	<path class="st0" d="M149.4,32V16.4h4.1V18c0.6-0.6,1.1-1,1.8-1.3c0.6-0.3,1.3-0.5,2-0.5c0.6,0,1.2,0.2,1.6,0.5
		c0.4,0.3,0.7,0.8,0.9,1.3c0.2,0.5,0.3,1.1,0.3,1.8V32h-4.1V20.4c0-0.4-0.1-0.8-0.2-1c-0.1-0.2-0.4-0.3-0.8-0.3
		c-0.2,0-0.5,0.1-0.7,0.2c-0.3,0.1-0.5,0.3-0.8,0.5V32H149.4z"/>
	<path class="st0" d="M167.6,32.3c-1.1,0-2.1-0.2-2.9-0.6c-0.8-0.4-1.4-1-1.8-1.8c-0.4-0.8-0.6-1.7-0.6-2.9v-5.6
		c0-1.2,0.2-2.1,0.6-2.9c0.4-0.8,1-1.4,1.8-1.8c0.8-0.4,1.7-0.6,2.9-0.6s2.1,0.2,2.9,0.6s1.4,1,1.8,1.8c0.4,0.8,0.6,1.7,0.6,2.9V27
		c0,1.2-0.2,2.1-0.6,2.9c-0.4,0.8-1,1.4-1.8,1.8C169.7,32.1,168.7,32.3,167.6,32.3z M167.7,29.5c0.3,0,0.6-0.1,0.8-0.3
		c0.2-0.2,0.3-0.4,0.4-0.8c0.1-0.3,0.1-0.7,0.1-1.1v-6.2c0-0.5,0-0.8-0.1-1.2s-0.2-0.6-0.4-0.8c-0.2-0.2-0.4-0.3-0.8-0.3
		s-0.6,0.1-0.8,0.3c-0.2,0.2-0.3,0.5-0.4,0.8s-0.1,0.7-0.1,1.2v6.2c0,0.4,0,0.8,0.1,1.1c0.1,0.3,0.2,0.6,0.4,0.8
		C167,29.4,167.3,29.5,167.7,29.5z"/>
	<path class="st0" d="M175.5,32V16.4h4.1v2.5c0.5-0.9,1-1.6,1.6-2c0.5-0.4,1.1-0.7,1.8-0.7c0.1,0,0.2,0,0.3,0c0.1,0,0.2,0,0.3,0.1
		v4.1c-0.2-0.1-0.4-0.2-0.7-0.2c-0.3-0.1-0.5-0.1-0.8-0.1c-0.5,0-1,0.1-1.4,0.4c-0.4,0.3-0.8,0.6-1.2,1.1V32H175.5z"/>
</g>
</svg>
