<?xml version="1.0" encoding="utf-8"?>
<!-- Generator: Adobe Illustrator 23.1.0, SVG Export Plug-In . SVG Version: 6.00 Build 0)  -->
<svg version="1.1" id="Layer_1" xmlns="http://www.w3.org/2000/svg" xmlns:xlink="http://www.w3.org/1999/xlink" x="0px" y="0px"
	 viewBox="0 0 184 50.4" style="enable-background:new 0 0 184 50.4;" xml:space="preserve">
<style type="text/css">
	.st0{fill:#692112;}
	.st1{fill:#F36816;}
	.st2{enable-background:new    ;}
	.st3{fill:#260D0E;}
</style>
<g id="Logo" transform="translate(-77.255 -81.643)">
	<g id="Path_18">
		<path class="st0" d="M104.3,117.3c4.1-2,6.5-6.4,5.8-10.9l-0.3,0.3c-3.8,3.9-8.7,6.7-14.1,7.8c-7.8,1.6-14.4,6.5-18.4,13.4
			l-0.1,0.2c4.1,4.8,16.5,5.3,29.7,0.8c11.8-4,20.7-10.7,22.8-16.5l0,0c0.9-1.5,0.8-3.4-0.1-4.9c-1.3-1.8-3.9-2.1-6.3-1.1l0,0
			c-2.5,2.6-5.4,4.9-8.6,6.7c-3.2,2-6.7,3.5-10.4,4.5L104.3,117.3z"/>
	</g>
	<g id="Path_19">
		<path class="st1" d="M122.9,95.6c0,5.1-3,6.4-6.8,6.4s-6.8-1.3-6.8-6.4s6.8-12,6.8-12S122.9,90.5,122.9,95.6z"/>
	</g>
	<g id="Group_73" transform="translate(141.629 121.473)">
		<g id="Group_72">
			<g id="Path_28">
				<path class="st1" d="M8.2,0.5L7,7.3H6.1L7,2.2L3.8,7.3H3.2L1.8,2.2L0.9,7.3H0l1.2-6.8h1l1.5,5.6l3.5-5.6H8.2z"/>
			</g>
			<g id="Path_29">
				<path class="st1" d="M9.7,3.1c0.3-0.4,0.7-0.7,1.1-1c0.4-0.2,0.9-0.3,1.4-0.3c0.4,0,0.8,0.1,1.2,0.3c0.3,0.2,0.5,0.4,0.6,0.8
					l0.2-1H15l-1,5.4h-0.9l0.2-1c-0.3,0.3-0.6,0.6-0.9,0.8c-0.4,0.2-0.8,0.3-1.3,0.3c-0.4,0-0.8-0.1-1.1-0.3
					C9.7,6.9,9.5,6.6,9.3,6.3C9.1,6,9,5.6,9,5.2c0-0.2,0-0.4,0.1-0.6C9.2,4,9.4,3.5,9.7,3.1z M13.7,4.1c0-0.4-0.1-0.8-0.4-1.1
					c-0.3-0.3-0.7-0.4-1.1-0.4c-0.3,0-0.7,0.1-1,0.2c-0.3,0.2-0.6,0.4-0.8,0.7c-0.2,0.3-0.4,0.7-0.4,1.1c0,0.1,0,0.3,0,0.5
					c0,0.4,0.1,0.8,0.4,1.1c0.3,0.3,0.7,0.4,1.1,0.4c0.3,0,0.7-0.1,1-0.2c0.3-0.2,0.6-0.4,0.8-0.7c0.2-0.3,0.4-0.7,0.4-1.1
					C13.7,4.4,13.7,4.3,13.7,4.1L13.7,4.1z"/>
			</g>
			<g id="Path_30">
				<path class="st1" d="M18.3,4.6l2.1,2.7h-1.2l-1.7-2.4L17,7.3h-0.9L17.4,0h0.9l-0.8,4.3L20,1.9h1.2L18.3,4.6z"/>
			</g>
			<g id="Path_31">
				<path class="st1" d="M26.1,2.1c0.3,0.2,0.6,0.4,0.8,0.7c0.2,0.3,0.3,0.7,0.3,1.1c0,0.2,0,0.3,0,0.5c0,0.2-0.1,0.4-0.1,0.5h-4.3
					c0,0.1,0,0.2,0,0.3c0,0.4,0.1,0.8,0.4,1.1c0.3,0.3,0.7,0.4,1.1,0.4c0.4,0,0.7-0.1,1-0.3c0.3-0.2,0.5-0.4,0.7-0.7h1
					c-0.5,1.1-1.6,1.8-2.8,1.8c-0.6,0-1.2-0.2-1.6-0.6c-0.4-0.4-0.6-1-0.6-1.6c0-0.2,0-0.4,0.1-0.6c0.1-0.5,0.3-1,0.6-1.5
					c0.3-0.4,0.7-0.7,1.1-1c0.4-0.2,0.9-0.3,1.4-0.3C25.4,1.8,25.8,1.9,26.1,2.1z M26.2,3.9c0-0.4-0.1-0.7-0.4-1
					c-0.3-0.2-0.7-0.4-1-0.3c-0.5,0-0.9,0.2-1.2,0.4c-0.4,0.3-0.7,0.7-0.8,1.2h3.4C26.2,4.1,26.2,4,26.2,3.9L26.2,3.9z"/>
			</g>
			<g id="Path_32">
				<path class="st1" d="M33,5.8c0,0.1,0,0.2,0,0.3c0,0.1,0,0.3,0.2,0.4c0.2,0.1,0.3,0.1,0.5,0.1h0.7l-0.1,0.8h-0.8
					c-0.3,0-0.7-0.1-1-0.2c-0.2-0.2-0.3-0.5-0.3-0.8c0-0.1,0-0.3,0-0.4l0.6-3.2H32l0.1-0.7h0.7l0.2-1.4H34l-0.2,1.4h1.4L35,2.6h-1.4
					L33,5.8z"/>
			</g>
			<g id="Path_33">
				<path class="st1" d="M40.7,2.2C41,2.6,41.2,3,41.2,3.5c0,0.2,0,0.4,0,0.6l-0.6,3.2h-0.9l0.5-3c0-0.1,0-0.3,0-0.4
					c0-0.3-0.1-0.7-0.3-0.9c-0.3-0.2-0.6-0.3-0.9-0.3c-0.4,0-0.9,0.1-1.2,0.4c-0.4,0.3-0.6,0.8-0.6,1.3v0l-0.5,3h-0.9L37,0h0.9
					l-0.5,2.7C37.7,2.4,38,2.2,38.3,2c0.3-0.2,0.7-0.2,1.1-0.2C39.8,1.8,40.3,1.9,40.7,2.2z"/>
			</g>
			<g id="Path_34">
				<path class="st1" d="M47,2.1c0.3,0.2,0.6,0.4,0.8,0.7C47.9,3.1,48,3.5,48,3.9c0,0.2,0,0.3,0,0.5c0,0.2-0.1,0.4-0.1,0.5h-4.3
					c0,0.1,0,0.2,0,0.3c0,0.4,0.1,0.8,0.4,1.1c0.3,0.3,0.7,0.4,1.1,0.4c0.4,0,0.7-0.1,1-0.3c0.3-0.2,0.5-0.4,0.7-0.7h1
					c-0.5,1.1-1.6,1.8-2.8,1.8c-0.6,0-1.2-0.2-1.6-0.6c-0.4-0.4-0.6-1-0.6-1.6c0-0.2,0-0.4,0.1-0.6c0.1-0.5,0.3-1,0.6-1.5
					c0.6-0.8,1.5-1.3,2.6-1.3C46.2,1.8,46.6,1.9,47,2.1z M47.1,3.9c0-0.4-0.1-0.7-0.4-1c-0.3-0.2-0.7-0.4-1-0.3
					c-0.5,0-0.9,0.2-1.2,0.4c-0.4,0.3-0.7,0.7-0.8,1.2H47C47.1,4.1,47.1,4,47.1,3.9L47.1,3.9z"/>
			</g>
			<g id="Path_35">
				<path class="st1" d="M60.7,1.9L58,7.3h-0.9L56.6,3l-2.1,4.3h-0.9l-0.7-5.4h0.9l0.4,4.5l2.1-4.5h0.9l0.5,4.5l2-4.5H60.7z"/>
			</g>
			<g id="Path_36">
				<path class="st1" d="M62.2,7.1c-0.3-0.2-0.6-0.5-0.8-0.8c-0.2-0.4-0.3-0.8-0.3-1.2c0-0.6,0.1-1.2,0.4-1.7c0.6-1,1.6-1.7,2.8-1.6
					c0.4,0,0.8,0.1,1.2,0.3c0.3,0.2,0.6,0.5,0.8,0.8c0.2,0.4,0.3,0.8,0.3,1.2c0,0.6-0.1,1.2-0.4,1.7c-0.6,1-1.7,1.7-2.8,1.6
					C63,7.4,62.6,7.3,62.2,7.1z M64.7,6.3C65,6,65.3,5.7,65.5,5.3c0.2-0.4,0.3-0.8,0.3-1.2c0-0.4-0.1-0.8-0.4-1.1
					c-0.3-0.3-0.7-0.4-1.1-0.4c-0.4,0-0.8,0.1-1.1,0.3c-0.3,0.2-0.6,0.6-0.8,0.9c-0.2,0.4-0.3,0.8-0.3,1.2c0,0.4,0.1,0.8,0.4,1.1
					c0.3,0.3,0.7,0.4,1.1,0.4C64,6.6,64.4,6.5,64.7,6.3z"/>
			</g>
			<g id="Path_37">
				<path class="st1" d="M70.3,2.1c0.3-0.2,0.7-0.3,1.1-0.3l-0.2,0.9h-0.2c-0.4,0-0.8,0.1-1.2,0.4c-0.4,0.3-0.6,0.8-0.6,1.3
					l-0.5,2.9h-0.9l1-5.4h0.9l-0.2,1C69.7,2.6,70,2.3,70.3,2.1z"/>
			</g>
			<g id="Path_38">
				<path class="st1" d="M74.2,0l-1.3,7.3H72L73.3,0H74.2z"/>
			</g>
			<g id="Path_39">
				<path class="st1" d="M75.7,3.1c0.3-0.4,0.7-0.7,1.1-1c0.4-0.2,0.9-0.3,1.4-0.3c0.4,0,0.8,0.1,1.1,0.3c0.3,0.2,0.6,0.4,0.7,0.8
					L80.4,0h0.9l-1.3,7.3h-0.9l0.2-1c-0.2,0.3-0.6,0.6-0.9,0.8c-0.4,0.2-0.8,0.3-1.3,0.3c-0.4,0-0.8-0.1-1.1-0.3
					c-0.3-0.2-0.6-0.4-0.8-0.8C75.1,6,75,5.6,75,5.2c0-0.2,0-0.4,0.1-0.6C75.2,4,75.4,3.5,75.7,3.1z M79.7,4.1
					c0-0.4-0.1-0.8-0.4-1.1c-0.3-0.3-0.7-0.4-1.1-0.4c-0.3,0-0.7,0.1-1,0.2c-0.3,0.2-0.6,0.4-0.8,0.7c-0.2,0.3-0.4,0.7-0.4,1.1
					c0,0.1,0,0.3,0,0.5c0,0.4,0.1,0.8,0.4,1.1c0.3,0.3,0.7,0.4,1.1,0.4c0.3,0,0.7-0.1,1-0.2c0.3-0.2,0.6-0.4,0.8-0.7
					c0.2-0.3,0.4-0.7,0.4-1.1C79.7,4.4,79.7,4.3,79.7,4.1L79.7,4.1z"/>
			</g>
			<g id="Path_40">
				<path class="st1" d="M88.1,2.1c0.4-0.2,0.8-0.3,1.3-0.3c1.1-0.1,2.1,0.8,2.1,1.9c0,0.1,0,0.2,0,0.3c0,0.2,0,0.4-0.1,0.6
					c-0.1,0.5-0.3,1-0.6,1.5c-0.3,0.4-0.7,0.8-1.1,1c-0.4,0.2-0.9,0.4-1.4,0.4c-0.4,0-0.8-0.1-1.2-0.3c-0.3-0.2-0.5-0.5-0.7-0.8
					l-0.2,1h-0.9L86.8,0h0.9l-0.5,2.9C87.4,2.6,87.7,2.3,88.1,2.1z M90.6,4.1c0.1-0.8-0.5-1.5-1.3-1.5c-0.1,0-0.1,0-0.2,0
					c-0.3,0-0.7,0.1-1,0.2c-0.3,0.2-0.6,0.4-0.8,0.7c-0.2,0.3-0.4,0.7-0.4,1.1c0,0.1,0,0.3,0,0.5c0,0.4,0.1,0.8,0.4,1.1
					c0.3,0.3,0.7,0.4,1.1,0.4c0.3,0,0.7-0.1,1-0.2c0.3-0.2,0.6-0.4,0.8-0.7c0.2-0.3,0.4-0.7,0.4-1.1C90.5,4.4,90.6,4.3,90.6,4.1
					L90.6,4.1z"/>
			</g>
			<g id="Path_41">
				<path class="st1" d="M97.1,2.1c0.3,0.2,0.6,0.4,0.8,0.7c0.2,0.3,0.3,0.7,0.3,1.1c0,0.2,0,0.3,0,0.5c0,0.2-0.1,0.4-0.1,0.5h-4.3
					c0,0.1,0,0.2,0,0.3c0,0.4,0.1,0.8,0.4,1.1c0.3,0.3,0.7,0.4,1.1,0.4c0.4,0,0.7-0.1,1-0.3c0.3-0.2,0.5-0.4,0.7-0.7h1
					c-0.5,1.1-1.6,1.8-2.8,1.8c-0.6,0-1.2-0.2-1.6-0.6c-0.4-0.4-0.6-1-0.6-1.6c0-0.2,0-0.4,0.1-0.6c0.1-0.5,0.3-1,0.6-1.5
					c0.3-0.4,0.7-0.7,1.1-1c0.4-0.2,0.9-0.3,1.4-0.3C96.3,1.8,96.7,1.9,97.1,2.1z M97.2,3.9c0-0.4-0.1-0.7-0.4-1
					c-0.3-0.2-0.7-0.4-1-0.3c-0.5,0-0.9,0.2-1.2,0.4c-0.4,0.3-0.7,0.7-0.8,1.2h3.4C97.2,4.1,97.2,4,97.2,3.9L97.2,3.9z"/>
			</g>
			<g id="Path_42">
				<path class="st1" d="M100.6,5.8c0,0.1,0,0.2,0,0.3c0,0.1,0,0.3,0.2,0.4c0.2,0.1,0.3,0.1,0.5,0.1h0.7l-0.1,0.8h-0.8
					c-0.3,0-0.7-0.1-1-0.2c-0.2-0.2-0.3-0.5-0.3-0.8c0-0.1,0-0.3,0-0.4l0.6-3.2h-0.7l0.1-0.7h0.7l0.2-1.4h0.9l-0.2,1.4h1.4l-0.1,0.7
					h-1.4L100.6,5.8z"/>
			</g>
			<g id="Path_43">
				<path class="st1" d="M104.6,5.8c0,0.1,0,0.2,0,0.3c0,0.1,0,0.3,0.2,0.4c0.2,0.1,0.3,0.1,0.5,0.1h0.7l-0.1,0.8H105
					c-0.3,0-0.7-0.1-1-0.2c-0.2-0.2-0.3-0.5-0.3-0.8c0-0.1,0-0.3,0-0.4l0.6-3.2h-0.7l0.1-0.7h0.7l0.2-1.4h0.9l-0.2,1.4h1.4l-0.1,0.7
					h-1.4L104.6,5.8z"/>
			</g>
			<g id="Path_44">
				<path class="st1" d="M111.8,2.1c0.3,0.2,0.6,0.4,0.8,0.7c0.2,0.3,0.3,0.7,0.3,1.1c0,0.2,0,0.3,0,0.5c0,0.2-0.1,0.4-0.1,0.5h-4.3
					c0,0.1,0,0.2,0,0.3c0,0.4,0.1,0.8,0.4,1.1c0.3,0.3,0.7,0.4,1.1,0.4c0.4,0,0.7-0.1,1-0.3c0.3-0.2,0.5-0.4,0.7-0.7h1
					c-0.5,1.1-1.6,1.8-2.8,1.8c-0.6,0-1.2-0.2-1.6-0.6c-0.4-0.4-0.6-1-0.6-1.6c0-0.2,0-0.4,0.1-0.6c0.1-0.5,0.3-1,0.6-1.5
					c0.6-0.8,1.5-1.3,2.6-1.3C111.1,1.8,111.5,1.9,111.8,2.1z M111.9,3.9c0-0.4-0.1-0.7-0.4-1c-0.3-0.2-0.7-0.4-1-0.3
					c-0.5,0-0.9,0.2-1.2,0.4c-0.4,0.3-0.6,0.7-0.8,1.2h3.4C111.9,4.1,111.9,4,111.9,3.9L111.9,3.9z"/>
			</g>
			<g id="Path_45">
				<path class="st1" d="M116.4,2.1c0.3-0.2,0.7-0.3,1.1-0.3l-0.2,0.9h-0.2c-0.4,0-0.8,0.1-1.2,0.4c-0.4,0.3-0.6,0.8-0.6,1.3
					l-0.5,2.9h-0.9l1-5.4h0.9l-0.2,1C115.8,2.6,116.1,2.3,116.4,2.1z"/>
			</g>
		</g>
	</g>
	<g class="st2">
		<path class="st3" d="M142.9,113.6V91.8h5.5c1,0,1.8,0.1,2.6,0.2s1.5,0.5,2.1,0.9s1.1,1,1.4,1.7c0.3,0.7,0.5,1.7,0.5,2.8
			c0,0.9-0.1,1.6-0.4,2.3s-0.6,1.1-1.1,1.5s-1,0.6-1.7,0.7c0.8,0.1,1.6,0.4,2.1,0.9c0.6,0.5,1,1,1.3,1.8c0.3,0.7,0.4,1.6,0.4,2.7
			c0,1.1-0.1,2.1-0.4,2.9c-0.3,0.8-0.7,1.5-1.2,2c-0.5,0.5-1.2,0.9-2,1.2c-0.8,0.3-1.7,0.4-2.8,0.4H142.9z M147.4,100.6h1.1
			c0.8,0,1.4-0.1,1.8-0.3c0.4-0.2,0.7-0.6,0.8-1c0.2-0.5,0.2-1,0.2-1.7s-0.1-1.2-0.3-1.6c-0.2-0.4-0.6-0.7-1-0.9
			c-0.5-0.2-1-0.3-1.7-0.3h-0.8V100.6z M147.4,110.5h1.2c1.1,0,1.9-0.3,2.3-0.8s0.6-1.4,0.6-2.5c0-0.9-0.1-1.6-0.3-2.1
			c-0.2-0.5-0.5-0.9-1-1.1c-0.4-0.2-1-0.4-1.8-0.4h-1.2V110.5z"/>
		<path class="st3" d="M163.1,113.9c-1.2,0-2.1-0.2-2.9-0.6c-0.8-0.4-1.4-1-1.8-1.9c-0.4-0.8-0.6-1.8-0.6-3v-5.2
			c0-1.2,0.2-2.2,0.6-3s1-1.4,1.8-1.8c0.8-0.4,1.7-0.6,2.9-0.6c1.2,0,2.2,0.2,2.9,0.6c0.7,0.4,1.3,1.1,1.6,1.9s0.5,1.8,0.5,3v2.7
			h-6.3v3c0,0.5,0,0.8,0.1,1.1c0.1,0.3,0.2,0.5,0.4,0.6c0.2,0.1,0.4,0.2,0.7,0.2c0.3,0,0.5-0.1,0.7-0.2s0.3-0.3,0.4-0.6
			c0.1-0.3,0.1-0.6,0.1-1v-1.5h3.8v1.3c0,1.6-0.4,2.8-1.3,3.6C165.9,113.5,164.7,113.9,163.1,113.9z M161.9,104.1h2.5v-1.5
			c0-0.4,0-0.8-0.1-1.1s-0.2-0.5-0.4-0.6c-0.2-0.1-0.4-0.2-0.7-0.2c-0.3,0-0.5,0.1-0.7,0.2c-0.2,0.1-0.3,0.3-0.4,0.7
			c-0.1,0.3-0.1,0.8-0.1,1.3V104.1z"/>
		<path class="st3" d="M176.5,113.6l4.2-21.9h4.9l4.2,21.9h-4.1l-0.8-4.8h-3.5l-0.8,4.8H176.5z M181.9,106.1h2.6l-1.3-8.8
			L181.9,106.1z"/>
		<path class="st3" d="M198.7,113.6V91.8h5.3c1.9,0,3.3,0.2,4.3,0.7s1.8,1.2,2.2,2.2c0.4,1,0.6,2.3,0.6,3.9v8c0,1.6-0.2,3-0.6,4
			s-1.2,1.8-2.2,2.3c-1,0.5-2.4,0.7-4.3,0.7H198.7z M203.1,110.5h0.9c0.8,0,1.4-0.1,1.8-0.4s0.6-0.6,0.7-1.2
			c0.1-0.5,0.1-1.1,0.1-1.9v-9c0-0.8-0.1-1.4-0.2-1.8c-0.1-0.5-0.4-0.8-0.7-1s-0.9-0.3-1.7-0.3h-0.9V110.5z"/>
		<path class="st3" d="M218.9,113.9c-1.1,0-2.1-0.2-2.9-0.6c-0.8-0.4-1.4-1-1.8-1.8c-0.4-0.8-0.6-1.7-0.6-2.9V103
			c0-1.2,0.2-2.1,0.6-2.9c0.4-0.8,1-1.4,1.8-1.8s1.7-0.6,2.9-0.6c1.1,0,2.1,0.2,2.9,0.6c0.8,0.4,1.4,1,1.8,1.8
			c0.4,0.8,0.6,1.7,0.6,2.9v5.6c0,1.2-0.2,2.1-0.6,2.9c-0.4,0.8-1,1.4-1.8,1.8C220.9,113.7,220,113.9,218.9,113.9z M218.9,111.2
			c0.3,0,0.6-0.1,0.8-0.3c0.2-0.2,0.3-0.4,0.4-0.8c0.1-0.3,0.1-0.7,0.1-1.1v-6.2c0-0.5,0-0.8-0.1-1.2c-0.1-0.3-0.2-0.6-0.4-0.8
			c-0.2-0.2-0.4-0.3-0.8-0.3c-0.3,0-0.6,0.1-0.8,0.3c-0.2,0.2-0.3,0.5-0.4,0.8c-0.1,0.3-0.1,0.7-0.1,1.2v6.2c0,0.4,0,0.8,0.1,1.1
			c0.1,0.3,0.2,0.6,0.4,0.8C218.3,111.1,218.5,111.2,218.9,111.2z"/>
		<path class="st3" d="M226.6,113.6V98h4.1v1.6c0.6-0.6,1.1-1,1.8-1.3c0.6-0.3,1.3-0.5,2-0.5c0.6,0,1.2,0.2,1.6,0.5
			c0.4,0.3,0.7,0.8,0.9,1.3c0.2,0.5,0.3,1.1,0.3,1.8v12.3h-4.1V102c0-0.4-0.1-0.8-0.2-1c-0.1-0.2-0.4-0.3-0.8-0.3
			c-0.2,0-0.5,0.1-0.7,0.2c-0.3,0.1-0.5,0.3-0.8,0.5v12.3H226.6z"/>
		<path class="st3" d="M244.9,113.9c-1.1,0-2.1-0.2-2.9-0.6c-0.8-0.4-1.4-1-1.8-1.8c-0.4-0.8-0.6-1.7-0.6-2.9V103
			c0-1.2,0.2-2.1,0.6-2.9c0.4-0.8,1-1.4,1.8-1.8c0.8-0.4,1.7-0.6,2.9-0.6s2.1,0.2,2.9,0.6s1.4,1,1.8,1.8c0.4,0.8,0.6,1.7,0.6,2.9
			v5.6c0,1.2-0.2,2.1-0.6,2.9c-0.4,0.8-1,1.4-1.8,1.8C247,113.7,246,113.9,244.9,113.9z M244.9,111.2c0.3,0,0.6-0.1,0.8-0.3
			c0.2-0.2,0.3-0.4,0.4-0.8c0.1-0.3,0.1-0.7,0.1-1.1v-6.2c0-0.5,0-0.8-0.1-1.2s-0.2-0.6-0.4-0.8c-0.2-0.2-0.4-0.3-0.8-0.3
			s-0.6,0.1-0.8,0.3c-0.2,0.2-0.3,0.5-0.4,0.8s-0.1,0.7-0.1,1.2v6.2c0,0.4,0,0.8,0.1,1.1c0.1,0.3,0.2,0.6,0.4,0.8
			C244.3,111.1,244.6,111.2,244.9,111.2z"/>
		<path class="st3" d="M252.7,113.6V98h4.1v2.5c0.5-0.9,1-1.6,1.6-2c0.5-0.4,1.1-0.7,1.8-0.7c0.1,0,0.2,0,0.3,0c0.1,0,0.2,0,0.3,0.1
			v4.1c-0.2-0.1-0.4-0.2-0.7-0.2c-0.3-0.1-0.5-0.1-0.8-0.1c-0.5,0-1,0.1-1.4,0.4c-0.4,0.3-0.8,0.6-1.2,1.1v10.4H252.7z"/>
	</g>
</g>
</svg>
